<svg xmlns="http://www.w3.org/2000/svg" width="68" height="59"><g fill="none"><path fill="#69F0AE" d="M51.455 39.116l5.61-4.38 6.499 2.843a1 1 0 001.34-1.26l-2.416-6.605 4.745-5.235a1 1 0 00-.78-1.671l-7.06.269-3.507-6.096a1 1 0 00-1.826.217l-2 6.806-6.961 1.481a1 1 0 00-.344 1.812l5.892 3.899-.8 7.019a.999.999 0 001.608.901z"/><path fill="#263238" d="M6.558 18.156l4.112-3.226 4.781 2.12a1.002 1.002 0 001.344-1.259l-1.794-4.893 3.486-3.873a1 1 0 00-.778-1.669l-5.208.18-2.595-4.518a1 1 0 00-1.828.22l-1.45 5.025L1.512 7.34a1 1 0 00-.349 1.81l4.353 2.908-.57 5.203a.998.998 0 001.611.896z"/><path fill="#2B393F" d="M28.473 58.204l2.326-1.842 2.709 1.234a1 1 0 001.352-1.256l-1.04-2.824 1.993-2.248a1 1 0 00-.775-1.663l-3.004.082-1.494-2.612a1 1 0 00-1.832.228l-.796 2.868-2.906.599a.998.998 0 00-.361 1.806l2.517 1.714-.305 3.03a1 1 0 001.615.885z"/></g></svg>