<svg xmlns="http://www.w3.org/2000/svg" width="82" height="82"><g fill="none" fill-rule="evenodd"><circle cx="41" cy="41" r="41" fill="#455A64"/><g fill="#546E7A" transform="rotate(11 -257.291 247.208)"><ellipse cx="18" cy="13.282" rx="6.783" ry="4" transform="rotate(-40 18 13.282)"/><path d="M5.46 17.116c1.772-1.675 2.585-3.814 1.814-4.778-.77-.964-2.831-.387-4.603 1.289C.898 15.302.086 17.44.856 18.405c.77.963 2.832.386 4.604-1.289z"/><ellipse cx="19.221" cy="3.116" rx="2.716" ry="1.362" transform="rotate(-44 19.22 3.116)"/></g><g fill="#546E7A" transform="rotate(79 -16.795 31.607)"><ellipse cx="6.191" cy="5.952" rx="5.28" ry="3.122" transform="rotate(-30 9.535 -4.05)"/><path d="M4.466 9.978C5.732 8.78 6.312 7.253 5.762 6.565c-.55-.689-2.023-.277-3.289.92S.627 10.21 1.177 10.898c.55.688 2.023.276 3.289-.92z"/></g></g></svg>