<svg xmlns="http://www.w3.org/2000/svg" width="87" height="68"><g fill="none"><path fill="#69F0AE" fill-opacity=".2" d="M38.66 26.665l-7.423-9.504 4.81-10.992a1 1 0 00-1.259-1.34L23.606 8.918 14.731.876a1 1 0 00-1.67.78l.456 11.967-10.32 5.937a.999.999 0 00.216 1.826l11.513 3.381 2.51 11.796a.999.999 0 001.811.343l6.61-9.99 11.902 1.358a1 1 0 00.901-1.609z"/><path fill="#69F0AE" d="M29.6 20.96l-3.212-4.112 2.087-4.77a1 1 0 00-1.259-1.34l-4.844 1.771-3.837-3.476a.999.999 0 00-1.671.779l.197 5.174-4.47 2.572a.999.999 0 00.216 1.826l4.996 1.467 1.086 5.103a1 1 0 001.812.344l2.856-4.315 5.141.586a1 1 0 00.902-1.61z"/><path fill="#263238" d="M18.156 61.442L14.93 57.33l2.12-4.781a1.002 1.002 0 00-1.259-1.344l-4.893 1.794-3.873-3.486a1 1 0 00-1.669.778l.18 5.208-4.518 2.595a1 1 0 00.22 1.828l5.025 1.45 1.077 5.116a1 1 0 001.81.349l2.908-4.353 5.203.57a.998.998 0 00.896-1.611zm68.048-20.915l-1.842-2.326 1.234-2.709a1 1 0 00-1.256-1.352l-2.824 1.04-2.248-1.993a1 1 0 00-1.663.775l.082 3.004-2.612 1.494a1 1 0 00.228 1.832l2.868.796.599 2.906a.998.998 0 001.806.361l1.714-2.517 3.03.305a1 1 0 00.885-1.615z"/></g></svg>